<?xml version="1.0" encoding="UTF-8" standalone="no"?>
<svg
   xmlns:dc="http://purl.org/dc/elements/1.1/"
   xmlns:cc="http://creativecommons.org/ns#"
   xmlns:rdf="http://www.w3.org/1999/02/22-rdf-syntax-ns#"
   xmlns:svg="http://www.w3.org/2000/svg"
   xmlns="http://www.w3.org/2000/svg"
   version="1.1"
   id="svg2"
   viewBox="0 0 353.2401 322.05539"
   height="90.89119mm"
   width="99.692207mm">
  <defs
     id="defs4" />
  <metadata
     id="metadata7">
    <rdf:RDF>
      <cc:Work
         rdf:about="">
        <dc:format>image/svg+xml</dc:format>
        <dc:type
           rdf:resource="http://purl.org/dc/dcmitype/StillImage" />
        <dc:title></dc:title>
      </cc:Work>
    </rdf:RDF>
  </metadata>
  <g
     transform="translate(-27.217176,-34.462897)"
     id="layer1">
    <path
       id="path3448"
       d="m 203.54076,347.48382 c -3.13506,-3.46421 -17.29593,-9.56287 -28.42746,-12.24286 -5.775,-1.39037 -17.7,-3.49742 -26.5,-4.68233 -8.8,-1.18491 -22.3,-3.03639 -30,-4.1144 -49.14818,-6.88082 -72.04281,-22.09179 -80.7106,-53.62334 -1.71727,-6.24706 -2.14436,-10.67662 -2.19417,-22.75692 -0.0956,-23.19268 3.29013,-32.50135 20.36792,-55.99879 11.77331,-16.19898 14.29269,-21.12907 16.58922,-32.46289 4.79543,-23.66642 -4.3852,-40.23966 -33.25779,-60.03832 l -5.10409,-3.499999 20.01327,-27.5 c 11.0073,-15.125 20.52694,-27.82677 21.15476,-28.22616 0.62781,-0.39938 58.80906,-0.74012 129.29166,-0.7572 l 128.15018,-0.0311 6.75079,9.2572 c 3.71293,5.09147 9.49535,13.03685 12.84982,17.65642 3.35447,4.61956 9.36323,12.83715 13.3528,18.26131 3.98958,5.42416 7.36458,10.25428 7.5,10.7336 0.13543,0.47932 -3.57877,3.614669 -8.25377,6.967449 -12.51928,8.97847 -21.46518,18.29876 -25.56841,26.63843 -5.78218,11.7521 -6.45774,20.27006 -2.77111,34.94002 2.35074,9.35416 4.08939,12.28384 20.677,34.84138 5.99153,8.1479 11.51822,19.9597 13.80164,29.49722 1.78603,7.46 2.01122,10.74621 1.55699,22.72138 -1.16762,30.78317 -11.40974,48.75888 -34.69611,60.89434 -12.42969,6.47762 -28.00651,10.24176 -60.53267,14.62775 -26.93018,3.6314 -39.55137,5.96419 -48.36634,8.93962 -7.91007,2.66999 -16.8769,7.17324 -19.80918,9.94841 -2.75551,2.60789 -3.51191,2.60914 -5.86435,0.01 z"
       style="fill:#05173b;fill-opacity:1" />
    <path
       id="path3446"
       d="m 185.1133,217.06397 0,-111.5 -16.5,0 -16.5,0 0,107.805 0,107.805 7.25,1.23182 c 5.3835,0.91469 22.55592,5.00078 25.5,6.06759 0.1375,0.0498 0.25,-50.08441 0.25,-111.40941 z"
       style="fill:#ffffff" />
    <path
       id="path3444"
       d="m 243.3633,323.94388 13.75,-2.86141 0.19772,-99.50925 c 0.10875,-54.73009 0.22125,-103.22069 0.25,-107.7569 l 0.0523,-8.24765 -16.75,-0.002 -16.75,-0.002 7.3e-4,35.25 c 3.9e-4,19.3875 0.29975,69.37575 0.66523,111.08499 0.6645,75.83499 0.6645,75.83499 2.74927,75.37067 1.14662,-0.25538 8.27227,-1.75197 15.83477,-3.32575 z"
       style="fill:#ffffff" />
    <path
       id="path3442"
       d="m 117.11989,278.31357 c 0.004,-21.5875 0.29765,-69.2875 0.65338,-106 l 0.64679,-66.75 -17.16248,0 -17.16248,0 0.0276,101.48391 c 0.0276,101.4839 0.0276,101.4839 2.98259,103.01197 2.96449,1.53299 24.97683,7.33187 28.25797,7.44421 1.63785,0.0561 1.75042,-2.4554 1.75659,-39.19009 z"
       style="fill:#ffffff" />
    <path
       id="path3440"
       d="m 307.88644,314.00452 c 5.65023,-1.32744 11.61273,-3.10625 13.25,-3.95292 2.97686,-1.53939 2.97686,-1.53939 2.97686,-103.01371 l 0,-101.47432 -16.5,0 -16.5,0 0,106.07946 0,106.07945 3.25,-0.65222 c 1.7875,-0.35873 7.87291,-1.73831 13.52314,-3.06574 z"
       style="fill:#ffffff" />
    <path
       id="path3732"
       d="m 232.19736,77.179361 9.59644,0 0,9.09137 -9.59644,0 z"
       style="fill:#ffffff;fill-opacity:1" />
    <path
       id="path3730"
       d="m 247.14258,56.289901 0,2.40039 c -0.0228,0.26176 -0.0293,0.54242 -0.0293,0.87305 0,0.43602 0.008,0.79283 0.0293,1.11132 l 0,1.86524 3.91601,0 c 0.84343,0.0171 1.80469,0.0234 3.05469,0.0234 l 6.95899,0 0,24.08398 7.14257,0 0,-24.08398 6.42969,0 c 1.15477,0 2.04301,-0.006 2.82227,-0.0234 l 3.60547,0 0,-1.74414 c 0.0294,-0.34599 0.041,-0.73537 0.041,-1.23242 0,-0.39331 -0.003,-0.73236 -0.041,-1.0293 l 0,-2.24414 -33.92969,0 z"
       style="fill:#ffffff;fill-opacity:1" />
    <path
       id="path3726"
       d="m 201.56055,56.471541 -4.63282,8.3125 c -1.00071,1.72566 -2.12264,3.68441 -3.56445,6.2207 -3.75485,6.60519 -6.42536,11.6118 -7.41406,13.47461 l -1.14063,2.04688 6.71289,0 3.91602,-6.9043 c 1.7702,-0.06639 4.51735,-0.06853 9.00195,-0.05859 5.13309,0.01137 7.98521,0.02858 9.74024,0.13085 l 3.875,6.83204 2.13672,0 c 0.31954,0.02396 0.68516,0.03711 1.14843,0.03711 0.56681,0 1.09258,-0.01376 1.57618,-0.03711 l 2.38671,0 -0.19921,-0.33985 c 0.001,-0.0037 0.01,-0.008 0.01,-0.01172 0,-0.21395 -3.78157,-6.85145 -8.40234,-14.75 -3.33558,-5.70169 -5.34777,-9.06882 -6.83203,-11.16992 l -2.22071,-3.7832 -6.09765,0 z"
       style="fill:#ffffff;fill-opacity:1" />
    <path
       id="path3724"
       d="m 168.70569,77.357951 9.59644,0 0,9.09137 -9.59644,0 z"
       style="fill:#ffffff;fill-opacity:1" />
    <path
       id="rect3534-7"
       d="m 154.1133,85.275811 c 1.95498,-0.98425 2.56565,-2.15174 2.80115,-5.35525 0.26132,-3.55488 -0.003,-4.17811 -2,-4.71296 -4.08047,-1.09293 -4.80115,-0.73923 -4.80115,2.35634 0,3 0,3 -9,3 l -9,0 0,-9 0,-9 9,0 c 8.93333,0 9,0.0185 9,2.5 0,1.93046 0.51258,2.49651 2.25,2.48469 3.67214,-0.025 4.9254,-1.41321 4.57418,-5.06675 -0.23143,-2.4075 -1.03943,-3.73227 -2.82418,-4.63039 -3.00526,-1.51233 -22.66763,-1.74461 -26.4349,-0.3123 -2.5651,0.97525 -2.5651,0.97525 -2.5651,14.03222 0,12.60594 0.0777,13.08822 2.25,13.96137 3.49511,1.40486 23.83731,1.20945 26.75,-0.25697 z"
       style="fill:#ffffff;fill-opacity:1" />
    <path
       id="path3728"
       d="m 201.07124,69.313941 c 1.64912,-2.8875 3.29193,-5.25 3.6507,-5.25 0.35876,0 1.98701,2.3625 3.61835,5.25 l 2.96605,5.25 -6.61675,0 -6.61675,0 2.9984,-5.25 z"
       style="fill:#05173b;fill-opacity:1" />
  </g>
</svg>
